<?xml version="1.0" standalone="no"?>
<!DOCTYPE svg PUBLIC "-//W3C//DTD SVG 20010904//EN"
 "http://www.w3.org/TR/2001/REC-SVG-20010904/DTD/svg10.dtd">
<svg version="1.0" xmlns="http://www.w3.org/2000/svg"
 width="500.000000pt" height="500.000000pt" viewBox="0 0 500.000000 500.000000"
 preserveAspectRatio="xMidYMid meet">

<g transform="translate(0.000000,500.000000) scale(0.100000,-0.100000)"
fill="#000000" stroke="none">
<path d="M1114 3803 c20 -127 26 -356 26 -1073 0 -718 -5 -915 -25 -1067 l-6
-43 266 0 265 0 -5 38 c-17 123 -25 320 -25 645 l0 367 178 0 c97 0 229 -4
292 -10 63 -5 143 -12 178 -15 l62 -6 0 57 0 56 -67 -6 c-38 -3 -197 -9 -355
-12 l-288 -7 0 527 0 526 199 0 c223 0 321 -13 471 -61 52 -17 123 -46 157
-65 34 -19 66 -34 72 -34 5 0 38 41 73 91 35 50 69 99 77 110 13 19 2 19 -769
19 l-782 0 6 -37z"/>
<path d="M1350 1225 c0 -64 16 -91 22 -37 2 22 9 28 38 33 l35 6 -35 4 c-23 3
-36 10 -38 22 -3 14 4 17 32 17 20 0 36 5 36 10 0 6 -20 10 -45 10 l-45 0 0
-65z"/>
<path d="M1580 1225 l0 -65 40 0 c22 0 40 5 40 10 0 6 -13 10 -30 10 -30 0
-30 1 -30 55 0 30 -4 55 -10 55 -6 0 -10 -28 -10 -65z"/>
<path d="M1816 1234 c-14 -31 -26 -60 -26 -65 0 -15 17 -10 24 6 8 21 66 19
82 -2 25 -35 24 -5 -3 55 -14 34 -32 62 -39 62 -7 0 -24 -25 -38 -56z m42 -22
c-27 -5 -32 2 -18 29 l13 22 13 -24 c11 -22 11 -24 -8 -27z"/>
<path d="M2060 1225 c0 -37 4 -65 10 -65 6 0 10 28 10 65 0 37 -4 65 -10 65
-6 0 -10 -28 -10 -65z"/>
<path d="M2230 1224 c0 -48 3 -65 13 -61 6 2 11 11 9 21 -4 24 40 21 56 -4 7
-11 17 -20 23 -20 7 0 5 10 -5 25 -9 14 -12 25 -6 25 16 0 24 49 10 65 -8 9
-30 15 -56 15 l-44 0 0 -66z m85 21 c0 -15 -8 -21 -32 -23 -30 -3 -33 -1 -33
23 0 24 3 26 33 23 24 -2 32 -8 32 -23z"/>
<path d="M2650 1225 c0 -64 16 -91 22 -37 3 24 7 27 38 27 31 0 35 -3 38 -27
6 -54 22 -27 22 37 0 37 -4 65 -10 65 -5 0 -10 -11 -10 -24 0 -27 -27 -41 -60
-31 -13 4 -20 15 -20 31 0 13 -4 24 -10 24 -6 0 -10 -28 -10 -65z"/>
<path d="M2920 1225 c0 -37 4 -65 10 -65 6 0 10 28 10 65 0 37 -4 65 -10 65
-6 0 -10 -28 -10 -65z"/>
<path d="M3090 1280 c0 -5 11 -10 25 -10 22 0 25 -4 25 -32 0 -46 -13 -62 -40
-53 -16 5 -21 4 -18 -6 6 -19 45 -24 64 -9 9 8 14 32 14 66 l0 54 -35 0 c-19
0 -35 -4 -35 -10z"/>
<path d="M3323 1233 c-13 -32 -27 -61 -30 -65 -2 -5 3 -8 11 -8 9 0 16 7 16
15 0 11 11 15 39 15 25 0 41 -5 45 -15 3 -8 10 -15 15 -15 5 0 -2 29 -17 65
-15 36 -33 65 -40 65 -7 0 -25 -26 -39 -57z m51 11 c10 -26 7 -34 -14 -34 -11
0 -20 4 -20 9 0 17 12 41 20 41 4 0 11 -7 14 -16z"/>
<path d="M3570 1226 l0 -66 39 0 c23 0 46 7 56 16 14 15 14 18 0 40 -9 15 -11
24 -5 24 6 0 10 10 8 23 -3 19 -10 22 -50 25 l-48 3 0 -65z m77 30 c-6 -18
-57 -20 -57 -2 0 8 6 16 13 19 19 6 48 -4 44 -17z m-2 -56 c0 -9 -11 -16 -27
-18 -23 -3 -28 1 -28 18 0 17 5 21 28 18 16 -2 27 -9 27 -18z"/>
</g>
</svg>
